<svg xmlns="http://www.w3.org/2000/svg" viewBox="0 0 200 300" width="200" height="300">
  <defs>
    <linearGradient id="blueGradient" x1="0%" y1="0%" x2="100%" y2="100%">
      <stop offset="0%" style="stop-color:#4FC3F7;stop-opacity:1" />
      <stop offset="100%" style="stop-color:#1976D2;stop-opacity:1" />
    </linearGradient>
  </defs>
  
  <!-- Staff/Rod -->
  <rect x="95" y="50" width="10" height="200" fill="url(#blueGradient)"/>
  
  <!-- Top ornament -->
  <ellipse cx="100" cy="40" rx="20" ry="15" fill="url(#blueGradient)"/>
  
  <!-- First snake -->
  <path d="M85 80 Q60 90 70 110 Q80 130 100 120 Q120 110 110 130 Q100 150 85 140 Q70 130 80 150 Q90 170 100 160" 
        stroke="url(#blueGradient)" stroke-width="8" fill="none"/>
  
  <!-- Second snake -->
  <path d="M115 90 Q140 100 130 120 Q120 140 100 130 Q80 120 90 140 Q100 160 115 150 Q130 140 120 160 Q110 180 100 170" 
        stroke="url(#blueGradient)" stroke-width="8" fill="none"/>
  
  <!-- Wings -->
  <ellipse cx="75" cy="65" rx="15" ry="8" fill="url(#blueGradient)" opacity="0.8"/>
  <ellipse cx="125" cy="65" rx="15" ry="8" fill="url(#blueGradient)" opacity="0.8"/>
</svg>
